<?xml version="1.0" encoding="UTF-8"?>
<svg id="Layer_1" data-name="Layer 1" xmlns="http://www.w3.org/2000/svg" viewBox="0 0 1205.28 148.8">
  <defs>
    <style>
      .cls-1 {
        fill: #191919;
        stroke-width: 0px;
      }
    </style>
  </defs>
  <path class="cls-1" d="m305.87,122.44h-7.22c0-58.47-41.85-106.05-93.29-106.05s-93.29,47.57-93.29,106.05h-7.22c0-62.45,45.09-113.26,100.5-113.26s100.5,50.81,100.5,113.26Z"/>
  <path class="cls-1" d="m216.82,122.44h-7.22c0-58.47-41.85-106.05-93.29-106.05S23.03,63.97,23.03,122.44h-7.22C15.81,59.99,60.9,9.18,116.31,9.18s100.5,50.81,100.5,113.26Z"/>
  <g>
    <path class="cls-1" d="m367.13,79.75l-8.21-15.23h-.29s-.12,57.01-.12,57.01l-8.04-.02.14-68.49,9.52.02,24.93,41.86,8.21,15.23h.29l.12-57.01,8.05.02-.15,68.5-9.52-.02-24.94-41.86Z"/>
    <path class="cls-1" d="m434.84,122.87c-3.4,0-6.51-.64-9.32-1.89-2.81-1.25-5.21-3.04-7.2-5.36-1.99-2.33-3.54-5.11-4.64-8.35-1.1-3.24-1.65-6.89-1.64-10.94,0-3.99.57-7.62,1.69-10.89,1.12-3.27,2.68-6.06,4.68-8.38,2-2.32,4.41-4.09,7.22-5.33,2.82-1.23,5.92-1.85,9.33-1.84,3.4,0,6.49.63,9.27,1.88,2.78,1.25,5.18,3.04,7.2,5.36,2.02,2.33,3.59,5.13,4.69,8.4,1.1,3.28,1.65,6.91,1.65,10.9-.01,4.06-.57,7.7-1.69,10.94s-2.7,6.01-4.73,8.33c-2.03,2.32-4.44,4.1-7.22,5.33-2.78,1.23-5.88,1.85-9.28,1.85Zm.01-6.97c4.25,0,7.72-1.29,10.41-3.91,2.69-2.61,4.04-6.6,4.05-11.96l.02-7.26c.01-5.36-1.32-9.36-4-11.98-2.68-2.62-6.14-3.94-10.39-3.95-4.25-.01-7.72,1.29-10.41,3.9-2.69,2.61-4.04,6.6-4.05,11.96l-.02,7.26c-.01,5.37,1.32,9.36,4,11.98,2.68,2.62,6.14,3.94,10.39,3.95Z"/>
    <path class="cls-1" d="m466.94,121.76l.11-50.64,7.85.02-.02,9.32h.49c.92-2.42,2.56-4.57,4.92-6.47,2.36-1.89,5.6-2.83,9.72-2.82h3.04s-.02,7.86-.02,7.86h-4.61c-4.25-.02-7.57.78-9.96,2.37-2.39,1.6-3.59,3.61-3.6,6.03l-.07,34.35-7.85-.02Z"/>
    <path class="cls-1" d="m499.42,71.2l7.66.02,5.35,21.89,5.35,22.19h.2l6.23-22.17,6.43-21.87h6.97s6.53,21.91,6.53,21.91l6.23,22.19h.19l5.25-22.17,5.54-21.87,7.36.02-13.55,50.61-9.71-.02-7.02-24.35-4.38-15.42h-.2l-4.35,15.4-7.12,24.32-9.52-.02-13.44-50.66Z"/>
    <path class="cls-1" d="m596.67,123.21c-3.47,0-6.59-.64-9.37-1.89s-5.16-3.04-7.15-5.36c-1.99-2.33-3.52-5.11-4.59-8.35-1.07-3.24-1.6-6.89-1.6-10.94.01-3.99.56-7.62,1.64-10.89s2.63-6.06,4.63-8.38c2-2.32,4.39-4.09,7.17-5.33,2.78-1.23,5.91-1.85,9.38-1.84,3.4,0,6.44.63,9.12,1.88,2.68,1.25,4.96,2.96,6.86,5.15,1.89,2.19,3.34,4.78,4.35,7.78,1.01,3,1.51,6.3,1.5,9.88v3.71s-36.41-.08-36.41-.08v2.35c-.01,2.16.33,4.17,1.01,6.04.68,1.87,1.66,3.49,2.94,4.86,1.27,1.38,2.84,2.46,4.7,3.25,1.86.79,3.97,1.19,6.33,1.19,3.2,0,6-.74,8.4-2.24,2.39-1.5,4.24-3.65,5.56-6.46l5.58,4.06c-1.64,3.49-4.2,6.29-7.67,8.42-3.47,2.13-7.6,3.19-12.37,3.18Zm.1-46.42c-2.16,0-4.12.36-5.89,1.11-1.76.75-3.29,1.8-4.57,3.16-1.28,1.36-2.28,2.97-3,4.82-.73,1.85-1.09,3.88-1.09,6.09v.68l27.97.06v-1.07c.01-4.49-1.21-8.08-3.65-10.78s-5.7-4.06-9.76-4.07Z"/>
    <path class="cls-1" d="m672.19,127.84c0,5.21-2.06,9.04-6.16,11.48-4.09,2.44-10.23,3.65-18.41,3.63-7.92-.02-13.61-1.11-17.07-3.27-3.46-2.16-5.19-5.24-5.18-9.23,0-2.75.73-4.88,2.17-6.42,1.44-1.54,3.4-2.66,5.9-3.37v-1.08c-3-1.44-4.5-3.79-4.5-7.05,0-2.54.83-4.47,2.47-5.81s3.73-2.32,6.29-2.97v-.39c-3.01-1.45-5.34-3.52-7-6.21-1.66-2.69-2.49-5.81-2.48-9.35,0-2.56.47-4.92,1.39-7.08.92-2.16,2.22-4.01,3.89-5.55,1.67-1.54,3.67-2.73,6-3.58,2.32-.85,4.92-1.27,7.8-1.26,3.6,0,6.8.67,9.61,1.98v-.88c0-1.98.47-3.62,1.39-4.92.92-1.3,2.42-1.94,4.52-1.94l7.56.02-.02,6.97-9.62-.02v3.25c1.82,1.58,3.24,3.47,4.25,5.67,1.01,2.2,1.51,4.68,1.51,7.43,0,2.56-.47,4.92-1.39,7.08-.92,2.16-2.22,4.01-3.89,5.55-1.67,1.54-3.69,2.73-6.04,3.58-2.36.85-4.97,1.27-7.85,1.26-1.63,0-3.27-.17-4.9-.5-1.7.46-3.24,1.12-4.62,2s-2.06,2.1-2.07,3.67c0,1.51.72,2.52,2.15,3.05s3.3.79,5.59.79l10.8.02c6.28.01,10.84,1.21,13.68,3.6s4.26,5.66,4.24,9.84Zm-7.36.52c0-2.03-.76-3.65-2.3-4.86-1.53-1.21-4.26-1.82-8.19-1.83l-16.88-.04c-3.14,1.43-4.72,3.72-4.72,6.86,0,2.22.82,4.12,2.49,5.7,1.66,1.57,4.49,2.36,8.48,2.37h7.26c4.38.03,7.78-.66,10.21-2.02,2.42-1.37,3.64-3.43,3.64-6.18Zm-17.51-29.28c3.34,0,5.99-.79,7.95-2.4,1.97-1.61,2.95-4.08,2.96-7.44v-2.76c.01-3.35-.96-5.83-2.92-7.45s-4.61-2.42-7.94-2.43c-3.34,0-5.99.79-7.95,2.4s-2.95,4.08-2.96,7.43v2.76c-.01,3.35.96,5.83,2.92,7.45,1.96,1.62,4.61,2.42,7.94,2.43Z"/>
    <path class="cls-1" d="m684.5,59.71c-1.7,0-2.93-.41-3.68-1.23s-1.12-1.88-1.12-3.19v-1.27c0-1.31.38-2.37,1.14-3.19.75-.81,1.98-1.22,3.68-1.22,1.7,0,2.93.42,3.68,1.24.75.82,1.12,1.88,1.12,3.19v1.28c0,1.31-.39,2.37-1.14,3.18-.75.82-1.98,1.22-3.68,1.22Zm-3.95,11.87l7.85.02-.11,50.64-7.85-.02.11-50.64Z"/>
    <path class="cls-1" d="m739.78,122.34c-2.95,0-5.05-.79-6.33-2.37-1.27-1.57-2.07-3.54-2.39-5.89h-.49c-1.12,3.14-2.95,5.49-5.51,7.05-2.56,1.56-5.6,2.35-9.13,2.34-5.37-.01-9.53-1.4-12.5-4.15-2.97-2.75-4.45-6.49-4.44-11.2.01-4.77,1.77-8.44,5.27-10.98,3.5-2.54,8.95-3.81,16.34-3.79l10.01.02v-5.01c.02-3.6-.96-6.34-2.92-8.25s-4.97-2.86-9.02-2.86c-3.08,0-5.64.67-7.71,2.04s-3.79,3.2-5.16,5.48l-4.7-4.43c1.38-2.75,3.57-5.08,6.59-7,3.01-1.92,6.81-2.88,11.39-2.87,6.15.01,10.92,1.53,14.32,4.54,3.39,3.01,5.09,7.19,5.08,12.54l-.06,27.81h5.79s-.01,6.98-.01,6.98h-4.42Zm-22.56-5.54c1.96,0,3.76-.22,5.4-.67,1.64-.45,3.05-1.11,4.23-1.95,1.18-.85,2.1-1.83,2.75-2.94.65-1.11.99-2.32.99-3.63l.02-8.34-10.4-.02c-4.51,0-7.8.64-9.86,1.94-2.06,1.3-3.09,3.2-3.1,5.69v2.06c-.01,2.49.88,4.42,2.68,5.8,1.8,1.38,4.23,2.07,7.31,2.07Z"/>
    <path class="cls-1" d="m753.64,122.37l.11-50.64,7.85.02-.02,8.15h.39c1.25-2.85,3-5.11,5.26-6.79,2.26-1.68,5.29-2.52,9.08-2.51,5.23.01,9.37,1.71,12.4,5.08,3.03,3.38,4.54,8.14,4.53,14.29l-.07,32.48-7.85-.02.07-31.18c.02-9.11-3.8-13.68-11.45-13.7-1.57,0-3.09.19-4.57.58-1.47.39-2.8.98-3.97,1.76-1.18.78-2.11,1.78-2.81,2.99-.69,1.21-1.03,2.64-1.04,4.28l-.07,35.21-7.85-.02Z"/>
    <path class="cls-1" d="m876.21,122.63l-6.83-20.23-27.68-.06-6.91,20.2-8.34-.02,24.09-68.45,10.5.02,23.8,68.54-8.64-.02Zm-20.38-60.88h-.49s-11.65,33.34-11.65,33.34l23.65.05-11.51-33.39Z"/>
    <path class="cls-1" d="m893.8,122.66v-6.87s9.63.02,9.63.02l.12-54.76-9.62-.02v-6.87s27.49.06,27.49.06v6.87s-9.63-.02-9.63-.02l-.12,54.76,9.62.02v6.87s-27.49-.06-27.49-.06Z"/>
    <path class="cls-1" d="m983.58,124.03c-8.7-.02-15.47-2.99-20.29-8.92-4.83-5.93-7.23-14.65-7.2-26.17.02-11.51,2.46-20.36,7.31-26.53,4.86-6.17,11.63-9.25,20.33-9.23,5.76.01,10.58,1.31,14.47,3.91,3.88,2.59,6.91,6.28,9.05,11.06l-6.68,4.01c-1.37-3.53-3.46-6.37-6.26-8.5-2.81-2.13-6.34-3.2-10.59-3.21-2.95,0-5.58.55-7.9,1.66-2.33,1.11-4.29,2.7-5.9,4.77-1.61,2.06-2.84,4.52-3.7,7.38-.86,2.86-1.29,6.05-1.3,9.6l-.02,10.24c-.01,7.09,1.61,12.64,4.87,16.65,3.26,4.01,7.87,6.02,13.83,6.03,4.38,0,8.05-1.11,11-3.36,2.95-2.25,5.11-5.24,6.49-8.97l6.57,4.13c-2.17,4.84-5.29,8.62-9.35,11.36-4.06,2.74-8.97,4.1-14.73,4.09Z"/>
    <path class="cls-1" d="m1026.34,122.94c-2.75,0-4.82-.78-6.23-2.32-1.4-1.54-2.1-3.49-2.1-5.84l.14-64.47,7.85.02-.14,65.65,7.46.02v6.97s-6.98-.02-6.98-.02Z"/>
    <path class="cls-1" d="m1061.78,124.2c-3.4,0-6.51-.64-9.32-1.89-2.81-1.25-5.21-3.04-7.2-5.36-2-2.33-3.54-5.11-4.64-8.35-1.1-3.24-1.65-6.89-1.65-10.95.01-3.99.57-7.62,1.69-10.89s2.68-6.06,4.68-8.38c2-2.32,4.41-4.1,7.23-5.34,2.81-1.23,5.92-1.85,9.32-1.84,3.4,0,6.49.64,9.27,1.88,2.78,1.25,5.18,3.04,7.2,5.36,2.02,2.33,3.59,5.13,4.69,8.4s1.66,6.91,1.65,10.9c0,4.06-.57,7.7-1.69,10.94-1.12,3.24-2.69,6.01-4.73,8.33-2.03,2.32-4.44,4.1-7.22,5.33s-5.88,1.85-9.28,1.85Zm.02-6.97c4.25,0,7.72-1.29,10.41-3.9,2.69-2.61,4.04-6.6,4.05-11.96v-7.26c.03-5.36-1.31-9.36-3.99-11.98-2.68-2.62-6.14-3.94-10.39-3.95-4.25,0-7.72,1.29-10.41,3.9-2.69,2.61-4.04,6.6-4.05,11.96v7.26c-.03,5.36,1.3,9.36,3.98,11.98,2.68,2.62,6.14,3.94,10.39,3.95Z"/>
    <path class="cls-1" d="m1125.19,115h-.39c-.53,1.16-1.17,2.31-1.92,3.44-.76,1.13-1.69,2.13-2.8,3.01-1.11.87-2.45,1.56-4.03,2.08-1.57.51-3.4.77-5.5.76-5.24,0-9.39-1.7-12.45-5.08s-4.59-8.14-4.58-14.29l.07-32.48,7.85.02-.07,31.17c-.02,9.12,3.83,13.68,11.55,13.7,1.57,0,3.09-.19,4.56-.58,1.47-.39,2.78-.98,3.93-1.76,1.14-.78,2.06-1.78,2.76-2.99.69-1.21,1.03-2.67,1.04-4.37l.07-35.11,7.85.02-.11,50.64-7.85-.02.02-8.15Z"/>
    <path class="cls-1" d="m1180.55,115.12h-.39c-3.09,6.21-8.03,9.31-14.84,9.3-3.14,0-5.98-.63-8.53-1.88-2.55-1.25-4.72-3.02-6.51-5.32-1.8-2.29-3.17-5.07-4.11-8.35-.94-3.27-1.41-6.94-1.4-10.99s.49-7.72,1.45-10.99c.95-3.27,2.33-6.05,4.14-8.33s3.99-4.05,6.54-5.28,5.4-1.85,8.54-1.85c3.53,0,6.56.78,9.07,2.3,2.52,1.53,4.43,3.88,5.73,7.06h.39l.06-30.13,7.85.02-.16,72.62-7.85-.02.02-8.15Zm-13.06,2.33c1.76,0,3.45-.22,5.05-.68s3-1.13,4.17-2.02c1.18-.88,2.11-1.96,2.8-3.25.69-1.28,1.03-2.74,1.04-4.39l.04-18.94c0-1.38-.34-2.68-1.02-3.9-.68-1.22-1.62-2.25-2.79-3.11-1.18-.86-2.57-1.53-4.17-2.03-1.6-.5-3.28-.75-5.05-.75-4.45,0-7.95,1.38-10.51,4.17-2.56,2.79-3.84,6.45-3.85,10.99l-.02,8.68c-.01,4.54,1.26,8.21,3.81,11.01,2.54,2.8,6.04,4.21,10.49,4.21Z"/>
  </g>
</svg>