<?xml version="1.0"?>
<svg width="178.02149301357343" height="29.882912631467633" xmlns="http://www.w3.org/2000/svg" xmlns:svg="http://www.w3.org/2000/svg">
 <g class="layer">
  <title>Layer 1</title>
  <path d="m21.85,7.41l1,0l2.85,-2.85l0.14,-1.21a12.81,12.81 0 0 0 -20.84,6.25a1.55,1.55 0 0 1 1,-0.06l5.7,-0.94s0.29,-0.48 0.44,-0.45a7.11,7.11 0 0 1 9.73,-0.74l-0.02,0z" fill="#ea4335" id="svg_1"/>
  <path d="m29.76,9.6a12.84,12.84 0 0 0 -3.87,-6.24l-4,4a7.11,7.11 0 0 1 2.61,5.64l0,0.71a3.56,3.56 0 1 1 0,7.12l-7.12,0l-0.71,0.72l0,4.27l0.71,0.71l7.12,0a9.26,9.26 0 0 0 5.26,-16.93z" fill="#4285f4" id="svg_2"/>
  <path d="m10.25,26.49l7.12,0l0,-5.7l-7.12,0a3.54,3.54 0 0 1 -1.47,-0.32l-1,0.31l-2.87,2.85l-0.25,1a9.21,9.21 0 0 0 5.59,1.86z" fill="#34a853" id="svg_3"/>
  <path d="m10.25,8a9.26,9.26 0 0 0 -5.59,16.6l4.13,-4.13a3.56,3.56 0 1 1 4.71,-4.71l4.13,-4.13a9.25,9.25 0 0 0 -7.38,-3.63z" fill="#fbbc05" id="svg_4"/>
  <g fill="#5f6368" id="svg_5">
   <path d="m52.79,22.51a9.11,9.11 0 0 1 -6.6,-2.71a8.8,8.8 0 0 1 -2.77,-6.52a8.81,8.81 0 0 1 2.77,-6.52a9.11,9.11 0 0 1 6.6,-2.76a8.84,8.84 0 0 1 6.33,2.55l-1.78,1.81a6.41,6.41 0 0 0 -4.55,-1.8a6.34,6.34 0 0 0 -4.7,2a6.53,6.53 0 0 0 -1.93,4.75a6.53,6.53 0 0 0 1.93,4.69a6.71,6.71 0 0 0 9.36,0.11a5.32,5.32 0 0 0 1.37,-3.11l-6,0l0,-2.56l8.49,0a8.12,8.12 0 0 1 0.1,1.56a8,8 0 0 1 -2.19,5.9a8.51,8.51 0 0 1 -6.43,2.61zm19.74,-1.7a6.12,6.12 0 0 1 -8.47,0a5.7,5.7 0 0 1 -1.73,-4.25a5.71,5.71 0 0 1 1.73,-4.25a6.13,6.13 0 0 1 8.47,0a5.71,5.71 0 0 1 1.73,4.25a5.7,5.7 0 0 1 -1.74,4.25l0.01,0zm-6.6,-1.67a3.24,3.24 0 0 0 4.73,0a3.56,3.56 0 0 0 1,-2.58a3.57,3.57 0 0 0 -1,-2.59a3.29,3.29 0 0 0 -4.75,0a3.57,3.57 0 0 0 -1,2.59a3.56,3.56 0 0 0 1.01,2.58l0.01,0zm19.62,1.67a6.12,6.12 0 0 1 -8.47,0a5.7,5.7 0 0 1 -1.73,-4.25a5.71,5.71 0 0 1 1.73,-4.25a6.12,6.12 0 0 1 8.47,0a5.71,5.71 0 0 1 1.73,4.25a5.7,5.7 0 0 1 -1.73,4.25zm-6.6,-1.67a3.24,3.24 0 0 0 4.73,0a3.56,3.56 0 0 0 1,-2.58a3.57,3.57 0 0 0 -1,-2.59a3.29,3.29 0 0 0 -4.75,0a3.57,3.57 0 0 0 -1,2.59a3.56,3.56 0 0 0 1.01,2.58l0.01,0zm15.16,8.71a5.24,5.24 0 0 1 -3.33,-1.06a6.13,6.13 0 0 1 -1.94,-2.46l2.28,-0.95a3.84,3.84 0 0 0 1.13,1.49a2.85,2.85 0 0 0 1.87,0.63a3,3 0 0 0 2.33,-0.9a3.65,3.65 0 0 0 0.83,-2.6l0,-0.86l-0.09,0a3.81,3.81 0 0 1 -3.13,1.35a5.43,5.43 0 0 1 -4,-1.74a5.75,5.75 0 0 1 -1.71,-4.19a5.81,5.81 0 0 1 1.71,-4.22a5.42,5.42 0 0 1 4,-1.75a4.3,4.3 0 0 1 1.84,0.41a3.7,3.7 0 0 1 1.3,0.95l0.09,0l0,-0.95l2.48,0l0,10.65a6.21,6.21 0 0 1 -1.59,4.65a5.6,5.6 0 0 1 -4.07,1.55zm0.18,-7.68a2.91,2.91 0 0 0 2.26,-1a3.7,3.7 0 0 0 0.91,-2.56a3.78,3.78 0 0 0 -0.91,-2.61a2.9,2.9 0 0 0 -2.26,-1a3.09,3.09 0 0 0 -2.34,1a3.65,3.65 0 0 0 -1,2.59a3.58,3.58 0 0 0 1,2.56a3.1,3.1 0 0 0 2.34,1.02zm9.89,-15.5l0,17.48l-2.61,0l0,-17.48l2.61,0zm7.16,17.84a5.68,5.68 0 0 1 -4.21,-1.71a5.79,5.79 0 0 1 -1.69,-4.24a5.86,5.86 0 0 1 1.63,-4.28a5.36,5.36 0 0 1 4,-1.67a5.05,5.05 0 0 1 2,0.39a4.71,4.71 0 0 1 1.53,1a7,7 0 0 1 1,1.21a7.15,7.15 0 0 1 0.59,1.17l0.27,0.68l-8,3.29a3,3 0 0 0 2.88,1.8a3.41,3.41 0 0 0 2.93,-1.65l2,1.35a6.59,6.59 0 0 1 -1.92,1.82a5.44,5.44 0 0 1 -3.01,0.84zm-3.34,-6.13l5.32,-2.21a1.84,1.84 0 0 0 -0.83,-0.91a2.71,2.71 0 0 0 -1.37,-0.35a3.09,3.09 0 0 0 -2.15,0.95a3.17,3.17 0 0 0 -0.97,2.52zm22.13,6.13a8.24,8.24 0 0 1 -8.38,-8.43a8.24,8.24 0 0 1 8.38,-8.43a7.46,7.46 0 0 1 5.93,2.64l-1.44,1.4a5.44,5.44 0 0 0 -4.48,-2.05a6.11,6.11 0 0 0 -4.45,1.78a6.24,6.24 0 0 0 -1.81,4.66a6.24,6.24 0 0 0 1.81,4.66a6.11,6.11 0 0 0 4.45,1.78a6.36,6.36 0 0 0 5,-2.34l1.44,1.44a7.86,7.86 0 0 1 -2.77,2.11a8.48,8.48 0 0 1 -3.68,0.78zm10.32,-0.36l-2.07,0l0,-16.15l2.07,0l0,16.15zm3.38,-9.72a5.79,5.79 0 0 1 8.16,0a5.85,5.85 0 0 1 1.6,4.2a5.85,5.85 0 0 1 -1.6,4.2a5.79,5.79 0 0 1 -8.16,0a5.85,5.85 0 0 1 -1.6,-4.2a5.85,5.85 0 0 1 1.6,-4.2zm1.54,7.1a3.49,3.49 0 0 0 5.07,0a4,4 0 0 0 1.07,-2.9a4,4 0 0 0 -1.07,-2.9a3.49,3.49 0 0 0 -5.07,0a4,4 0 0 0 -1.07,2.9a4,4 0 0 0 1.08,2.89l-0.01,0.01zm19.69,2.62l-2,0l0,-1.53l-0.06,0a3.85,3.85 0 0 1 -1.46,1.38a4.08,4.08 0 0 1 -2.05,0.55a3.89,3.89 0 0 1 -3.14,-1.26a5,5 0 0 1 -1.07,-3.38l0,-6.8l2.07,0l0,6.42q0,3.09 2.73,3.09a2.54,2.54 0 0 0 2.1,-1a3.77,3.77 0 0 0 0.81,-2.39l0,-6.12l2.07,0l0,11.04zm7.03,0.36a4.86,4.86 0 0 1 -3.7,-1.69a6,6 0 0 1 -1.55,-4.19a6,6 0 0 1 1.55,-4.19a4.86,4.86 0 0 1 3.7,-1.69a4.69,4.69 0 0 1 2.26,0.54a3.83,3.83 0 0 1 1.5,1.35l0.09,0l-0.09,-1.53l0,-5.11l2.07,0l0,16.15l-2,0l0,-1.53l-0.09,0a3.83,3.83 0 0 1 -1.5,1.35a4.69,4.69 0 0 1 -2.24,0.54zm0.34,-1.89a3.3,3.3 0 0 0 2.49,-1.08a4.05,4.05 0 0 0 1,-2.91a4.05,4.05 0 0 0 -1,-2.91a3.38,3.38 0 0 0 -5,0a4,4 0 0 0 -1,2.9a4,4 0 0 0 1,2.9a3.3,3.3 0 0 0 2.51,1.1z" fill="#ffffff" id="svg_6"/>
  </g>
 </g>
</svg>