<svg width="426" height="48" viewBox="0 0 426 48" fill="none" xmlns="http://www.w3.org/2000/svg">
<g clip-path="url(#clip0_445_24957)">
<path d="M107.932 47.7687V4.77624C107.932 2.15152 110.084 0 112.71 0C114.023 0 115.222 0.536302 116.112 1.43224L146.157 31.4651V0H155.713V42.9925C155.713 45.6172 153.56 47.7687 150.935 47.7687C149.622 47.7687 148.422 47.2324 147.532 46.3365L117.488 16.3036V47.775H107.932V47.7687Z" fill="#111218"/>
<path d="M209.774 9.55248H171.543V19.105H200.218C205.476 19.105 209.774 23.4017 209.774 28.6574V38.2099C209.774 43.4657 205.476 47.7624 200.218 47.7624H161.987V38.2099H200.218V28.6574H171.543C166.285 28.6574 161.987 24.3607 161.987 19.105V9.55248C161.987 4.29672 166.285 0 171.543 0H209.774V9.55248Z" fill="#111218"/>
<path d="M225.604 47.7687C220.346 47.7687 216.048 43.472 216.048 38.2162V9.55248C216.048 4.29672 220.346 0 225.604 0H263.835V9.55248H225.604V38.2162H263.835V47.7687H225.604Z" fill="#111218"/>
<path d="M308.334 0C313.592 0 317.89 4.29672 317.89 9.55248V47.7687H308.334V28.6574H279.659V47.7687H270.103V9.55248C270.103 4.29672 274.401 0 279.659 0H308.334ZM279.659 19.1113H308.334V9.55879H279.659V19.1113Z" fill="#111218"/>
<path d="M333.714 47.7687C328.456 47.7687 324.158 43.472 324.158 38.2162V0H333.714V38.2162H371.945V47.7687H333.714Z" fill="#111218"/>
<path d="M426 9.55248H387.769V19.105H426V28.6574H387.769V38.2099H426V47.7624H387.769C382.511 47.7624 378.213 43.4657 378.213 38.2099V9.55248C378.213 4.29672 382.511 0 387.769 0H426V9.55248Z" fill="#111218"/>
<path d="M84.5832 5.26992C84.5832 0.673895 79.0292 -1.63333 75.7706 1.60899L31.0848 46.0702C30.4465 46.7053 30.8965 47.7947 31.797 47.7947H38.2544C38.5606 47.7947 38.8664 47.7714 39.169 47.7252L49.1325 46.204C55.4401 45.2409 61.8603 45.2802 68.1557 46.3202L76.5875 47.7132C76.914 47.7671 77.2443 47.7942 77.5752 47.7942H82.1148C83.4781 47.7942 84.5832 46.6895 84.5832 45.3267V5.26992Z" fill="#111218"/>
<path opacity="0.6" d="M15.5137 47.7797C14.6146 47.7797 14.164 46.6934 14.7993 46.0574L45.6982 15.1256C47.5047 13.3171 50.4362 13.3161 52.2441 15.1232C54.051 16.9295 54.051 19.858 52.2441 21.6642L27.5202 46.3785C26.6228 47.2756 25.4056 47.7795 24.1364 47.7796L15.5137 47.7797Z" fill="#111218"/>
<path opacity="0.4" d="M2.39758 47.7855C0.267004 47.7855 -0.801112 45.2115 0.703926 43.7041L19.4809 24.8968C21.2871 23.0877 24.2189 23.0863 26.0268 24.8936C27.8335 26.6996 27.8335 29.6276 26.0268 31.4336L11.0703 46.3843C10.1729 47.2814 8.95573 47.7854 7.68656 47.7854L2.39758 47.7855Z" fill="#111218"/>
</g>
<defs>
<clipPath id="clip0_445_24957">
<rect width="426" height="48" fill="white"/>
</clipPath>
</defs>
</svg>
